<svg width="1707" height="1027" viewBox="0 0 1707 1027" fill="none" xmlns="http://www.w3.org/2000/svg">
<path d="M1280.67 3.46642C1269.07 5.46642 1247.33 7.59975 1223.33 9.06642L1184.67 11.4664L1137.33 6.53308C1111.33 3.73308 1083.73 1.46642 1076 1.33308H1062L1052.8 9.59975L1043.73 17.8664L1060.8 26.3998L1077.73 34.9331L1090.8 33.1998L1103.87 31.5998L1125.87 46.3998C1139.73 55.8664 1149.07 61.3331 1151.2 61.3331C1153.07 61.3331 1154.67 61.8664 1154.67 62.3998C1154.67 63.0664 1152.53 69.1998 1150 76.1331C1147.47 83.0664 1140.67 102.8 1134.8 120C1129.07 137.2 1121.07 160.4 1117.33 171.6L1110.4 191.733L1106.53 190.4C1104.27 189.6 1102.4 189.2 1102.13 189.466C1101.87 189.733 1100.67 192.933 1099.47 196.533C1097.33 203.2 1097.6 204.133 1102 205.733C1102.8 206 1102.27 209.333 1100.67 214.133L1098 222L1088.67 221.6C1069.6 220.933 931.333 214.666 891.333 212.666C868.666 211.6 829.6 209.733 804.666 208.666C613.333 200.133 602.266 199.466 587.6 196.133C584.8 195.466 582.133 194.666 581.866 194.266C581.6 194 584.4 185.866 588.133 176.266C594.8 158.933 594.933 158.8 598.4 160.133C600.266 160.8 602.133 160.933 602.666 160.4C603.2 159.866 605.466 154.133 607.733 147.733L611.866 136L608.533 135.2C605.6 134.4 605.2 133.733 606 130.8C608 122.533 608.133 122.666 594.133 117.2C586.8 114.4 580.4 112 580 112C579.466 112 578.4 114.4 577.466 117.333C576.666 120.266 575.466 122.666 574.8 122.666C574.266 122.666 557.6 117.2 537.866 110.4L502.133 98.2664L446.666 92.5331C359.333 83.4664 359.2 83.4664 356.266 73.7331C355.333 70.7998 354.666 66.7998 354.666 64.7998C354.666 60.6664 351.333 55.1998 347.866 53.1998C340.666 49.4664 326.666 66.2664 326.666 78.6664C326.666 80.7998 324.666 84.9331 321.733 88.6664C319.066 92.2664 314.533 99.5998 311.733 104.933L306.666 114.8L306.8 131.066C306.8 140 307.333 152.4 307.866 158.666C308.8 169.733 308.8 170.133 304.8 176C302.666 179.2 298.8 184.133 296.266 186.933C293.733 189.733 292 192.4 292.4 192.8C292.8 193.2 297.2 190.666 302.266 187.066C308.666 182.533 312.266 178.8 314.4 174.666C317.2 169.2 317.333 167.6 316.533 156C315.333 139.866 315.333 126.8 316.533 123.2C317.066 121.6 319.733 118.666 322.666 116.666C327.466 113.333 328.266 113.2 332.933 114.666C335.733 115.6 339.2 117.333 340.666 118.666C342.133 119.866 346.666 123.066 350.8 125.733C361.866 132.666 365.333 137.733 365.333 147.2C365.333 151.466 366.533 160.666 367.866 167.733C369.333 174.933 370.8 185.2 371.333 190.666C372.266 201.6 376.533 219.866 379.466 225.733C380.533 227.733 384.533 232.533 388.4 236.4C394.133 242.133 401.2 246.4 427.333 259.866C462.266 278 467.466 279.6 473.733 274.666C479.6 270 481.733 264.933 480 258.933C479.333 256.133 477.333 252.533 475.733 251.066C474 249.6 459.066 241.333 442.4 232.8C424.8 223.733 410.933 215.733 409.333 213.733C405.733 209.066 404.266 203.2 402 184.666C400.933 175.866 399.466 166.533 398.666 164C396.533 156.666 396.933 155.733 404.666 148.933L411.866 142.533L424.933 147.466C441.733 153.733 451.333 158.533 464.933 167.6C477.066 175.6 476.933 175.333 480.933 196C483.733 210.8 484.666 251.333 482.8 271.6C480.133 298.533 475.333 322.533 472.133 324.8C470.666 325.866 464.266 336.266 457.733 348C447.866 366.133 445.6 369.333 443.333 368.8C441.866 368.533 432.266 366.133 422 363.466C392.133 355.733 370.4 353.066 338.666 352.933C280.8 352.8 232.533 364.4 182 390.533C149.6 407.2 125.466 425.066 98.6662 452C68.3996 482.133 43.8662 518 27.9996 555.2C-2.80042 627.333 -8.13376 704.666 12.5329 780.133C38.7996 875.733 109.333 957.2 200.933 997.866C316 1048.93 451.066 1030.93 549.333 951.466C643.866 874.933 690.266 751.6 669.466 632C654.133 544.266 603.866 464.8 531.866 414.533C525.2 409.866 518.533 405.066 517.066 404C514.666 402 514.666 401.333 521.066 374.666C525.733 354.933 528.533 345.733 531.2 341.6C533.2 338.4 535.333 336 535.866 336.266C536.8 336.666 594.8 400.266 630 439.466C637.333 447.733 653.866 466 666.8 480.133C679.733 494.4 727.466 547.066 772.933 597.066L855.466 688.266L848.666 701.866C840.266 718.666 837.333 729.733 836.4 748C835.6 763.866 838.533 779.066 845.466 794.4C863.2 833.733 904.266 863.6 948.4 869.466L961.066 871.066L969.2 901.333C973.733 917.866 977.333 932.133 977.333 932.933C977.333 933.733 975.6 935.066 973.466 936C964.4 939.733 962.533 948.533 969.733 953.866C973.2 956.4 975.6 956.666 995.733 957.066C1019.73 957.466 1022.27 956.933 1027.07 950.4C1029.47 947.2 1029.47 946.4 1028 942.666C1026.13 938.266 1020.67 934.666 1015.73 934.666C1012.8 934.666 1012.13 932.8 1004.13 902.933C999.466 885.6 995.333 870.266 995.066 869.066C994.533 867.333 995.6 866.666 999.6 866C1002.4 865.6 1021.2 862 1041.47 858C1061.73 854 1078.8 850.666 1079.6 850.666C1080.4 850.666 1084.13 855.6 1088.13 861.6C1135.07 934 1214.93 988.266 1300.27 1005.87C1350 1016.13 1405.07 1014.93 1452.67 1002.67C1486.8 993.733 1527.73 975.466 1556.27 956.4C1695.6 862.933 1745.47 683.733 1674.4 532C1664.27 510.133 1649.47 486.666 1632.27 464.666C1622.8 452.666 1592.67 422.533 1580.67 413.066C1531.2 374.266 1478 351.333 1415.07 341.733C1394.27 338.666 1344.53 338.666 1324 341.866C1287.2 347.466 1254.67 357.066 1226.27 370.666C1221.07 373.2 1216.8 374.533 1216.13 373.866C1215.47 373.2 1209.47 364.4 1202.8 354.266C1195.6 343.6 1189.2 335.2 1187.33 334.4C1185.07 333.333 1181.33 327.866 1175.87 317.6C1171.33 309.066 1165.33 298.4 1162.53 293.866C1156.93 285.066 1141.33 269.466 1134.67 266C1132.53 264.933 1130.67 263.333 1130.67 262.533C1130.67 261.866 1133.07 252 1136 240.8C1138.93 229.6 1141.33 220 1141.33 219.466C1141.33 218.933 1142.93 218.8 1144.8 218.933C1148 219.333 1148.67 218.666 1150.67 212.4L1153.07 205.466L1149.47 204.266L1145.73 202.933L1151.6 185.866C1162.93 153.066 1185.33 86.9331 1185.33 86.1331C1185.33 85.7331 1182 84.3998 1178 83.1998C1174 81.8664 1170.67 80.3998 1170.67 79.8664C1170.67 78.1331 1180.4 70.3998 1185.2 68.3998C1188.27 67.0664 1194.67 66.3998 1203.73 66.3998H1217.73L1224.27 59.3331L1230.67 52.3998L1239.73 53.0664C1252.13 53.8664 1266.8 50.3998 1284.8 42.3998C1298.93 36.1331 1299.87 35.4664 1308.8 25.0664C1322.8 8.53308 1322.53 10.5331 1312.4 4.93308C1307.6 2.13308 1302.67 0.133084 1301.47 0.133084C1300.27 0.266418 1290.93 1.73308 1280.67 3.46642ZM1130 33.3331C1139.73 34.5331 1214.93 49.8664 1222.93 52.3998C1223.47 52.5331 1222.13 54.7998 1220 57.3331C1216.67 61.3331 1215.6 61.8664 1210.53 61.5998C1207.33 61.3331 1201.33 60.2664 1197.33 58.9331C1191.73 57.1998 1185.07 56.6664 1169.87 56.6664H1149.73L1130.93 44.1331C1120.53 37.1998 1112 31.3331 1112 31.0664C1112 30.7998 1113.07 30.7998 1114.4 31.1998C1115.6 31.5998 1122.67 32.5331 1130 33.3331ZM446.666 124C448.533 124.4 452.266 127.866 455.066 131.466C460 137.733 472.8 162.4 471.733 163.466C471.466 163.733 468.8 162.4 466 160.4C458.666 155.333 438.4 145.466 426.666 141.2C421.2 139.2 416.8 137.2 417.066 136.8C417.2 136.4 418.933 132.666 420.933 128.666L424.666 121.2L434 122.133C439.066 122.666 444.8 123.466 446.666 124ZM476.666 126.8C483.333 127.6 492.533 128.133 497.333 128.133C504.4 128.133 510.133 129.6 529.333 136.266C542.133 140.666 555.6 145.2 559.066 146.4C562.533 147.6 565.2 149.2 564.933 150C556.133 174 552.4 182.8 550.4 183.466C547.333 184.4 527.866 175.866 513.466 167.2C492.4 154.666 456.266 125.333 462 125.333C463.466 125.333 470.133 126 476.666 126.8ZM479.733 151.6C495.333 164.4 516.533 176.933 543.466 189.466L547.6 191.333L539.866 213.333C535.6 225.466 531.733 236.133 531.333 237.066C531.066 238 527.733 233.066 524.133 226C514.533 207.733 504.933 194.266 492.266 181.733C483.6 173.066 480.666 169.2 478.8 163.6C477.466 159.733 475.066 154 473.466 150.933C471.866 147.866 470.933 145.333 471.333 145.333C471.733 145.333 475.466 148.133 479.733 151.6ZM504.666 205.866C507.866 210.4 514.533 221.733 519.2 230.8L527.866 247.466L512.8 290C498.133 331.2 497.2 333.466 483.866 356.133C474.933 371.6 469.6 379.466 468.4 379.066C467.466 378.666 466.666 378 466.666 377.466C466.666 376.933 471.6 367.6 477.6 356.8C489.733 334.8 490.666 330.8 484.8 325.866L481.2 322.666L483.866 309.066C488.933 282.4 490 270.266 489.866 240C489.866 217.6 489.333 206.933 487.6 198C486.4 191.333 485.333 185.333 485.333 184.666C485.466 182.666 497.733 196.266 504.666 205.866ZM696.666 236C744.4 238.133 787.866 240.266 793.333 240.666C798.8 241.066 812.4 241.6 823.333 242C834.4 242.4 868.8 243.866 900 245.333C931.2 246.8 970.533 248.666 987.333 249.333C1042.13 251.866 1085.33 255.333 1085.33 257.333C1085.33 257.866 1080.27 272.666 1074.13 290.133C1067.87 307.733 1054.93 344.533 1045.33 372C1035.73 399.466 1023.73 433.733 1018.67 448C1013.6 462.266 1002 495.6 992.666 522C983.466 548.4 970.4 585.733 963.6 604.933L951.333 640H942.533H933.733L924.133 604.8C918.933 585.333 914.666 569.2 914.666 568.8C914.666 568.4 915.6 568 916.8 568C919.866 568 926.666 560.666 926.666 557.333C926.666 555.733 924.933 552.666 922.8 550.533L918.933 546.666H894.933C870.933 546.666 870.8 546.666 866.8 550.133C859.066 556.533 862 564.133 873.466 567.866L880.4 570.133L888.8 601.466C893.466 618.666 897.066 633.2 896.933 633.733C896.8 634.266 888.8 625.866 879.2 615.066C852.8 585.2 849.466 581.6 781.333 505.733C746.533 467.066 697.333 412.266 672.133 384C646.8 355.733 610.8 315.733 592.266 294.933L558.4 257.2L562.8 243.733L567.333 230.266L588.666 231.2C600.4 231.6 649.066 233.733 696.666 236ZM1133.33 272.8C1139.47 276.933 1150.93 288.666 1155.87 296C1158.67 300 1164.53 310.266 1169.07 318.666L1177.2 334L1174.53 337.2C1173.2 338.933 1172 341.733 1172 343.6C1172 345.466 1177.33 354.8 1184.93 366.133C1197.2 384.533 1197.73 385.466 1195.2 387.2C1193.2 388.666 1192.27 388.8 1191.2 387.6C1188.4 384.666 1124 289.066 1124 287.866C1124 285.333 1128.53 270.666 1129.2 270.666C1129.73 270.666 1131.6 271.6 1133.33 272.8ZM1142.8 363.733C1157.47 385.2 1169.33 403.333 1169.07 403.866C1168.8 404.533 1163.87 408.8 1158 413.333C1142.27 425.6 1114.27 454.533 1101.2 472C1065.2 519.866 1042.8 574.133 1035.07 632.666L1034 640.666L1019.33 640.266C1011.33 640.133 1004.67 639.733 1004.4 639.466C1004.13 639.333 1007.6 628.4 1012.13 615.2C1016.53 602.133 1026.8 571.866 1034.93 548C1042.93 524.133 1056 485.466 1064 462C1072 438.533 1085.07 399.466 1093.2 375.333C1113.07 316.533 1112 319.066 1114.27 322.133C1115.33 323.6 1128.13 342.266 1142.8 363.733ZM1384.53 498.266C1385.07 555.333 1385.6 608 1385.6 615.333C1385.87 627.6 1385.47 629.466 1381.73 638C1378.13 646.133 1377.07 647.333 1373.73 647.733C1370.4 648.133 1369.07 647.066 1363.33 639.2C1356.13 629.333 1358.53 637.733 1332 533.333C1311.87 454.533 1299.87 407.2 1299.2 405.2C1297.87 400.666 1333.87 395.066 1364.13 394.8L1383.73 394.666L1384.53 498.266ZM1406 396.666C1414.53 397.866 1426.4 399.866 1432.53 401.333C1444.8 404.133 1469.47 411.733 1470.93 413.2C1471.47 413.6 1459.2 445.2 1443.87 483.333C1428.4 521.466 1410.13 566.933 1403.07 584.4C1396.13 601.866 1390.13 616 1390 615.733C1389.73 615.466 1388.93 573.866 1388.13 523.333C1387.33 472.666 1386.4 423.066 1386 412.933C1385.07 391.6 1382.67 393.6 1406 396.666ZM1323.6 512.266C1338.53 571.733 1350.4 620.666 1350.27 620.933C1349.6 621.466 1344.93 614.533 1289.33 532.666C1262 492.266 1235.87 453.866 1231.2 447.2L1222.93 434.933L1235.07 428.266C1241.87 424.533 1252.8 419.333 1259.33 416.533C1271.33 411.6 1292.8 404.133 1295.33 404C1296.13 404 1308.8 452.666 1323.6 512.266ZM351.2 512.533L352.266 616.933L344.4 632.666L336.533 648.266L329.733 639.2C323.066 630 322.933 629.733 313.466 592.666C290.8 503.466 276.8 448.8 272.666 433.066L268.266 416.266L277.866 414.133C286.933 412.133 300.8 409.866 310.666 408.933C313.2 408.666 323.2 408.266 332.8 408.266L350.266 408L351.2 512.533ZM367.733 409.466C390.4 411.866 433.333 422.4 433.333 425.333C433.333 428.533 374.533 571.066 366.266 587.6L356.4 607.866L355.466 581.6C355.066 567.2 354.4 530.133 354 499.333C353.6 468.533 352.933 435.333 352.533 425.6C352 413.066 352.266 408 353.333 408C354.133 408 360.533 408.666 367.733 409.466ZM1492.53 422.533C1506.27 429.2 1532.67 445.6 1543.6 454.266L1546.67 456.666L1482 548L1417.47 639.333L1406 647.066C1397.2 653.066 1394.13 654.533 1392.67 653.333C1391.6 652.533 1390.53 647.333 1390 640.266L1389.07 628.666L1422 546C1440 500.533 1459.07 452.4 1464.4 439.066C1469.73 425.6 1474.53 414.666 1475.07 414.666C1475.73 414.666 1483.6 418.266 1492.53 422.533ZM291.733 518.933C305.733 574.933 316.933 620.8 316.8 621.066C316.533 621.2 287.466 582.933 252 535.866C202.666 470.266 188.133 450.133 189.466 449.2C190.533 448.533 200.933 443.2 212.666 437.333C231.733 427.866 258.4 417.6 264.133 417.333C266 417.333 270.933 435.733 291.733 518.933ZM443.866 428.933C444.133 429.066 434 450.533 421.2 476.533C408.4 502.4 397.866 523.6 397.733 523.466C397.466 523.333 406.133 501.2 416.8 474.266L436.266 425.466L439.733 427.066C441.733 427.866 443.6 428.666 443.866 428.933ZM1269.2 548.933L1335.87 646.666H1330.53C1325.6 646.666 1320.8 642.933 1237.33 573.733C1188.93 533.6 1149.33 500.4 1149.33 500C1149.33 499.466 1155.47 492.533 1163.07 484.666C1178.53 468.266 1198.53 450.533 1200.93 451.066C1201.87 451.2 1232.67 495.333 1269.2 548.933ZM251.2 539.733C286.933 587.733 316.933 628.266 318.133 630C319.2 631.733 321.2 637.6 322.533 642.933C323.866 648.266 325.333 654 325.866 655.466C327.333 660.133 323.866 660.133 310.4 656L298 652L240 603.866C208.133 577.466 168.533 544.666 152.133 531.066L122.4 506.266L135.466 493.066C142.8 485.866 152.8 476.4 157.866 472.266C169.333 462.8 184.4 452 185.466 452.4C186 452.533 215.6 491.866 251.2 539.733ZM500.8 460C504 462.266 506.666 464.4 506.666 464.933C506.666 465.333 495.333 481.6 481.466 501.2C467.733 520.666 455.333 538.4 454 540.4C452.666 542.4 451.333 543.866 451.066 543.466C450.533 542.933 493.6 456 494.4 456C494.666 456 497.466 457.866 500.8 460ZM1560.67 469.333C1572.93 480.533 1588.53 498.133 1597.47 510.533C1603.87 519.6 1605.07 522.133 1603.73 523.333C1602.4 524.533 1434.53 630 1425.47 635.2C1423.73 636.266 1423.6 636.133 1424.8 634.533C1425.6 633.466 1453.73 593.466 1487.33 545.6C1541.2 468.666 1548.53 458.8 1550.4 460.266C1551.73 461.2 1556.27 465.2 1560.67 469.333ZM518.533 473.866C530 483.333 548.133 502 558.533 515.2C563.066 520.933 566.666 525.866 566.4 526C564.666 527.466 412 622.4 412 622C412 621.733 418.4 608.8 426.133 593.066C439.333 566.533 442.4 561.6 474.4 515.733C493.333 488.8 508.933 466.8 509.2 466.666C509.466 466.666 513.733 469.866 518.533 473.866ZM1233.87 574.666C1293.07 624.4 1318.13 646.133 1316.4 646.4C1314.93 646.666 1286.53 638.4 1253.2 628.266C1162.13 600.266 1117.33 586.533 1110.4 584.4C1106.8 583.466 1104 582 1104 581.333C1104 578.666 1116.4 551.333 1122.8 539.6C1130.8 525.333 1146.4 502.4 1147.87 502.933C1148.4 503.2 1187.07 535.466 1233.87 574.666ZM202.8 576.8C247.066 613.866 284.533 645.466 286 646.8C288.666 649.466 288.666 649.466 284.666 648.133C280.4 646.666 248.666 636.933 144.666 605.2C108 594.133 77.4662 584.533 76.9329 584C75.4662 582.666 88.5329 555.6 97.7329 541.066C106.133 527.733 119.733 509.333 121.2 509.333C121.733 509.333 158.533 539.733 202.8 576.8ZM1613.47 534.933C1621.73 549.066 1629.87 567.066 1635.87 584.533C1638.8 593.066 1641.07 600 1640.8 600C1640.53 600 1589.6 617.066 1484.13 652.666L1430.27 670.8L1418.4 669.866C1402.4 668.666 1401.87 667.466 1411.2 654.133L1418.27 644L1511.47 584.8C1562.67 552.266 1605.33 525.6 1606.27 525.466C1607.2 525.333 1610.4 529.6 1613.47 534.933ZM577.2 541.866C588.4 560 605.866 598.533 603.866 600.533C603.333 601.2 556.4 617.066 445.333 654.266C399.733 669.6 394.8 671.066 389.066 670.133L382.933 669.2L395.066 649.733C401.733 639.066 408.666 629.2 410.533 627.866C412.4 626.533 448.533 603.466 490.666 576.8C541.466 544.666 567.866 528.666 568.8 529.466C569.6 530.133 573.466 535.733 577.2 541.866ZM1201.73 615.466C1254.67 632 1298.27 645.866 1298.67 646.266C1299.07 646.666 1292.8 646.666 1284.67 646.133C1276.67 645.733 1230.13 644.666 1181.33 643.866C1132.53 643.066 1092 642.266 1091.2 642C1089.2 641.333 1092.13 622.8 1097.47 602.666C1101.87 586.133 1102.13 585.333 1104.13 585.333C1104.93 585.333 1148.8 598.933 1201.73 615.466ZM189.2 622L297.2 655.733L305.2 662.666L313.2 669.6L311.066 674.133C309.2 678 307.6 679.066 299.733 681.6L290.666 684.533L232.933 680.8C201.333 678.8 148.8 675.466 116.266 673.333C83.7329 671.333 56.9329 669.333 56.5329 668.933C54.3996 666.8 61.8662 626.4 68.1329 606.266C74.2662 586.133 74.1329 586.533 77.8662 587.466C79.5996 587.866 129.733 603.466 189.2 622ZM610.533 621.333C615.066 639.6 618.666 664.8 618.666 677.733V686L558.4 681.866C525.2 679.466 477.733 676.266 453.066 674.533C428.266 672.8 408.4 671.2 408.8 670.8C409.2 670.4 411.733 669.333 414.4 668.533C417.066 667.733 437.066 660.8 458.666 653.333C480.266 645.866 508.266 636.266 520.666 632C533.2 627.733 557.2 619.466 574 613.6C590.933 607.866 605.066 603.333 605.6 603.866C606 604.266 608.266 612.133 610.533 621.333ZM1642.93 607.333C1647.6 624.4 1652.4 668.133 1650.93 680.933C1650.4 684.8 1649.87 685.333 1646.13 685.333C1642.4 685.333 1590.4 681.733 1488.8 674.666C1468.27 673.2 1449.47 672 1446.8 672C1444.13 672 1442.67 671.466 1443.33 670.8C1444.13 670.133 1457.87 665.2 1474 659.6C1551.2 633.066 1590.67 619.466 1613.33 611.6C1626.93 606.8 1638.8 603.066 1639.87 603.066C1640.93 603.2 1642.27 605.066 1642.93 607.333ZM1386.67 643.333C1386.67 648.4 1386.27 649.333 1384 649.333C1382.53 649.333 1381.33 649.066 1381.33 648.666C1381.33 647.466 1385.6 637.333 1386.13 637.333C1386.4 637.333 1386.67 640 1386.67 643.333ZM333.866 654C332.4 657.866 329.6 656 328.133 650.133C325.866 641.066 326.266 640.4 330.666 646.4C332.933 649.466 334.266 652.8 333.866 654ZM947.066 648.666C946.266 651.066 944.533 651.2 943.2 649.2C942.266 647.6 945.2 645.066 946.933 646.133C947.466 646.533 947.6 647.6 947.066 648.666ZM1032.8 656.933C1032.4 662.533 1032 669.466 1032 672.4C1032 675.333 1031.6 677.333 1031.07 676.933C1030.67 676.4 1028.27 677.333 1025.73 678.8C1020 682.4 1018.93 681.333 1021.73 675.2C1024.93 668.666 1023.33 667.2 1018 671.333C1012.67 675.333 1011.07 673.866 1013.47 667.333C1015.73 661.2 1014.13 660 1009.47 664.533C1004.67 669.2 1002.27 668.266 1004.27 662.666C1004.93 660.4 1005.2 657.6 1004.8 656.4C1004 654.533 1003.2 654.933 999.866 658.8C997.2 661.733 996.133 662.4 996.666 660.666C997.2 659.2 998.533 655.466 999.6 652.266L1001.6 646.666H1017.6H1033.73L1032.8 656.933ZM1211.33 650.666C1333.07 652.933 1327.33 652.4 1338.53 662.266C1344.27 667.333 1344.4 667.6 1342.8 672.133L1341.2 676.933L1319.87 680C1303.6 682.266 1295.47 682.8 1286.27 682.133C1279.47 681.6 1236.53 678.933 1190.67 676C1144.8 673.066 1102.93 670.4 1097.73 670L1088 669.066V661.6C1088 657.333 1088.4 652.666 1088.93 650.933L1089.73 647.733L1114.53 648.533C1128.13 649.066 1171.73 650 1211.33 650.666ZM1406 655.333C1402.53 659.866 1399.33 660.933 1399.33 657.6C1399.33 656 1408.27 649.2 1409.2 650C1409.33 650.266 1408 652.666 1406 655.333ZM1340.93 654.133C1340.53 654.533 1339.33 654.666 1338.4 654.266C1337.33 653.866 1337.73 653.466 1339.2 653.466C1340.67 653.333 1341.47 653.733 1340.93 654.133ZM315.866 661.6C318.4 662.533 318.666 663.066 317.333 664.666C315.466 666.8 315.866 667.066 307.333 659.6C306 658.4 309.6 659.2 315.866 661.6ZM1344.8 660.533C1346.13 661.6 1347.07 662.8 1346.67 663.066C1346.27 663.466 1344.53 662.666 1342.67 661.333C1338.8 658.4 1340.8 657.733 1344.8 660.533ZM1385.33 659.866C1385.33 661.333 1381.87 662.8 1380.8 661.733C1379.2 660.133 1380.13 658.666 1382.67 658.666C1384.13 658.666 1385.33 659.2 1385.33 659.866ZM134.666 677.333C176.133 680.266 225.733 683.733 245.066 684.933C264.266 686.266 280 687.6 280 688C280 688.4 270 692.133 257.733 696.266C245.333 700.4 217.6 709.866 196 717.333C174.4 724.8 137.733 737.333 114.666 745.333C91.5996 753.2 71.0662 760.4 69.0662 761.2C67.0662 761.866 65.1996 762.133 64.7996 761.466C63.5996 759.6 58.7996 734.133 57.4662 722.666C56.1329 711.6 55.5996 696.8 55.8662 680.266C55.9996 674.666 56.5329 672 57.7329 672C58.5329 672 93.1996 674.4 134.666 677.333ZM1168.67 677.333C1210.53 680.266 1251.6 683.066 1260 683.6C1268.4 684 1276.13 684.8 1276.93 685.2C1277.87 685.733 1270.93 687.066 1261.6 688.4C1252.27 689.733 1210.13 695.733 1168 701.866C1125.87 708 1090.8 712.533 1090.27 712C1089.6 711.466 1088.8 702.266 1088.4 691.466C1087.6 672.933 1087.73 672 1090.13 672C1091.47 672 1126.93 674.4 1168.67 677.333ZM1393.33 673.333C1393.33 674 1392.67 674.666 1391.87 674.666C1391.2 674.666 1390.93 674 1391.33 673.333C1391.73 672.533 1392.4 672 1392.8 672C1393.07 672 1393.33 672.533 1393.33 673.333ZM383.333 675.333C379.066 677.2 377.866 677.066 379.333 674.8C379.733 674 381.733 673.333 383.733 673.466L387.333 673.6L383.333 675.333ZM1398.67 674.666C1398.67 675.333 1398 676 1397.2 676C1396.53 676 1396.27 675.333 1396.67 674.666C1397.07 673.866 1397.73 673.333 1398.13 673.333C1398.4 673.333 1398.67 673.866 1398.67 674.666ZM1416.67 675.333C1411.33 677.866 1408 677.733 1408 675.333C1408 673.866 1409.6 673.333 1414.4 673.466L1420.67 673.6L1416.67 675.333ZM456.266 678C485.066 679.866 531.6 682.8 559.6 684.666C587.6 686.533 612.4 688 614.8 688H619.066L618.266 705.6C617.066 730.133 609.333 770.4 605.866 769.733C604.8 769.6 575.333 760.4 426.266 713.866C408.933 708.4 394.4 704 394 704C393.2 704 376.8 690.4 375.6 688.8C372.933 684.8 375.466 682.133 385.333 678.533C390.8 676.4 397.2 674.8 399.6 674.8C401.866 674.666 427.333 676.133 456.266 678ZM1542 681.333C1587.47 684.266 1630.53 686.933 1637.73 687.466L1650.67 688.4V693.2C1650.67 712.533 1638.67 768 1634.53 768C1633.33 768 1548 741.6 1458.4 713.466L1425.47 703.066L1416.93 695.6C1405.47 685.6 1405.87 683.2 1419.07 678.266C1430.67 674 1424.13 673.866 1542 681.333ZM1008.27 692.533C1013.2 697.6 1017.07 702 1016.67 702.4C1015.2 703.866 1000 706.666 993.066 706.666C980.933 706.666 980.933 706.8 985.466 693.6C987.6 687.2 989.6 681.2 990 680.266C991.066 677.466 997.733 682 1008.27 692.533ZM1031.47 687.466C1030.67 689.6 1026.67 690 1026.67 688C1026.67 687.2 1027.73 684.933 1029.07 682.933C1031.33 679.466 1031.33 679.466 1031.73 682.533C1032 684.133 1031.87 686.4 1031.47 687.466ZM308 684C308 684.666 306.666 685.333 305.066 685.2C302.133 685.2 302.133 685.066 304.666 684C306.133 683.333 307.466 682.8 307.733 682.8C307.866 682.666 308 683.2 308 684ZM304.4 689.333C307.466 689.333 308 689.866 308 692.933C308.133 695.066 308.933 698.4 309.866 700.666C313.466 709.2 313.6 709.2 203.866 778.666C148.133 813.866 102.133 842.666 101.6 842.666C99.4662 842.666 84.9329 816.533 77.9996 800C73.8662 790.4 65.0662 765.066 65.5996 764.666C65.8662 764.533 99.5996 753.066 140.666 739.333C181.733 725.466 232.4 708.266 253.333 701.066C282.133 691.2 292.4 688.133 296 688.666C298.533 689.066 302.266 689.333 304.4 689.333ZM1398.67 690.4C1398.67 693.866 1397.2 694.933 1395.07 693.2C1392.4 690.933 1392.93 688 1396 688C1397.73 688 1398.67 688.933 1398.67 690.4ZM1412.67 696.666C1417.2 700.4 1416.93 700.666 1410.8 698.533C1408.53 697.733 1406.67 696.266 1406.67 695.2C1406.67 692.533 1408 692.933 1412.67 696.666ZM379.333 697.333C380.666 698.8 381.333 700 380.8 700C378.933 700 374.666 697.2 374.666 696C374.666 693.866 376.8 694.533 379.333 697.333ZM860 700C861.466 700.8 861.6 701.6 860.533 702.666C858.666 704.533 854.666 702.933 855.6 700.533C856.4 698.4 857.2 698.266 860 700ZM1426.67 708.533C1427.73 709.466 1460.8 736.933 1500 769.333C1539.2 801.866 1576.27 832.666 1582.4 837.6L1593.33 846.8L1587.47 854.4C1579.47 864.533 1556.27 887.333 1544.67 896.533C1535.87 903.466 1535.2 903.866 1533.2 901.6C1532 900.4 1502.13 860.533 1466.93 813.066C1408 733.866 1402.67 726.266 1400.8 718.666C1398.13 708.266 1398.13 707.733 1401.33 703.6L1404 700.266L1414.27 703.6C1420 705.333 1425.6 707.6 1426.67 708.533ZM382.4 704C390.266 706.4 396.666 711.466 476.4 777.466C523.466 816.533 563.2 849.466 564.533 850.8C566.933 853.066 566.8 853.466 557.6 864.933C548 876.933 523.733 901.466 513.733 909.2L508.133 913.466L490.933 890.4C461.6 850.8 371.733 730.133 370.533 728.533C369.866 727.733 368.533 723.866 367.6 720C365.866 713.2 365.866 712.666 368.933 708.266C370.533 705.733 372 703.066 372 702.533C372 700.933 372.8 701.066 382.4 704ZM1366.67 704C1366.67 704.666 1365.73 705.333 1364.67 705.333C1363.6 705.333 1362.67 704.666 1362.67 704C1362.67 703.2 1363.6 702.666 1364.67 702.666C1365.73 702.666 1366.67 703.2 1366.67 704ZM1350.67 706.666C1350.67 707.333 1350 708 1349.2 708C1348.53 708 1348.27 707.333 1348.67 706.666C1349.07 705.866 1349.73 705.333 1350.13 705.333C1350.4 705.333 1350.67 705.866 1350.67 706.666ZM351.2 708.933C351.733 710.133 351.333 711.6 350.4 712.266C347.733 713.866 346.666 713.6 346.666 710.933C346.666 706.533 349.733 705.2 351.2 708.933ZM855.733 711.066C856 712.666 855.333 713.333 853.466 713.333C851.866 713.333 850.666 712.533 850.666 711.6C850.666 707.466 854.933 707.066 855.733 711.066ZM1314 715.6C1314 719.866 1314.4 724.533 1315.07 726.133C1316 728.666 1308.8 733.466 1240.93 776.4L1165.87 823.866L1151.47 827.2C1143.6 829.2 1136.27 830.666 1135.33 830.666C1130.13 830.666 1098.53 764.933 1103.07 763.333C1104 762.933 1132.4 753.333 1166.27 741.866L1228 721.066L1270.93 714.666C1294.67 711.2 1314 708.266 1314 708.133C1314 708 1314 711.466 1314 715.6ZM332.666 710.666C333.733 712.4 332 712.4 329.333 710.666C327.6 709.6 327.6 709.333 329.6 709.333C330.8 709.333 332.266 709.866 332.666 710.666ZM429.733 718.533C443.866 722.8 489.2 736.8 530.666 749.466C572.133 762.133 606.133 772.533 606.4 772.8C607.2 773.333 596.8 799.733 590.666 812.666C585.6 823.066 571.2 847.866 568.666 850.4C568.4 850.666 558.666 842.933 547.066 833.066C535.466 823.2 498.133 791.866 464 763.333C395.733 706.4 398.4 708.533 401.733 709.733C403.066 710.266 415.6 714.133 429.733 718.533ZM1514 734C1620.8 766.666 1633.87 770.8 1634.4 771.333C1635.2 772 1624.4 796.666 1618.4 808C1611.73 820.533 1596.4 844 1594.93 844C1593.87 844 1444 718.933 1437.47 712.666L1434.13 709.466L1442.13 711.866C1446.4 713.333 1478.8 723.2 1514 734ZM878.666 714L881.733 717.333H876.933C872.266 717.333 872.133 717.2 873.6 714C874.4 712.133 875.2 710.666 875.333 710.666C875.466 710.666 876.933 712.133 878.666 714ZM1395.73 714.8C1396.27 718 1396.13 718 1394.13 715.333C1391.6 712.133 1391.47 710.266 1393.73 710.933C1394.53 711.333 1395.47 712.933 1395.73 714.8ZM320.933 715.466C323.333 717.333 327.2 719.466 329.333 720.266C332.666 721.333 333.333 722.266 333.333 726.133C333.333 730 302.4 809.6 254 930.266L243.866 955.866L229.6 949.866C221.733 946.533 210.266 941.2 204 937.733C191.6 931.066 168 915.866 168 914.533C168 914 199.2 869.6 237.333 815.866C298.933 728.933 311.2 712.8 315.866 712.133C316.133 712 318.4 713.466 320.933 715.466ZM1393.73 720.933C1399.47 728.4 1399.87 729.866 1409.2 766C1423.33 821.466 1437.73 878.133 1446.8 913.2C1451.2 930.266 1454.53 944.533 1454.4 944.666C1454.13 944.933 1446.53 946.933 1437.33 949.2C1419.33 953.6 1393.87 957.333 1381.47 957.333H1373.6L1372.8 939.6C1372.4 930 1371.73 888.933 1371.33 848.4L1370.67 774.933L1375.2 772.266C1381.33 768.666 1384.27 763.866 1385.07 756C1385.73 748 1381.73 740 1375.2 736.533C1369.87 733.6 1369.73 732.8 1373.87 723.6C1376.53 717.466 1377.6 716.4 1382.13 715.066C1384.93 714.266 1387.47 713.6 1387.6 713.466C1387.73 713.466 1390.53 716.8 1393.73 720.933ZM1366.67 724V733.333H1354.4H1342.13L1345.73 729.6C1347.73 727.6 1349.73 723.866 1350.13 721.333C1351.33 715.466 1352.53 714.666 1360.4 714.666H1366.67V724ZM1370.8 720.4C1369.73 721.466 1369.33 721.333 1369.33 719.866C1369.33 717.2 1371.07 715.333 1371.73 717.333C1372.13 718.266 1371.6 719.6 1370.8 720.4ZM852.666 721.466C851.866 722.666 846.666 723.2 846.666 722.133C846.666 721.866 847.066 720.666 847.466 719.466C848.133 717.866 848.8 717.733 850.8 718.8C852.266 719.466 853.066 720.666 852.666 721.466ZM362.8 724.666C365.733 729.066 369.466 742 382.666 794C391.733 829.2 404.666 880.133 411.6 907.2C418.8 935.466 423.733 956.8 423.066 957.466C421.466 959.066 398.933 964.8 383.866 967.333C377.2 968.533 364.666 969.866 356 970.4L340.266 971.333L339.466 964.666C339.066 961.066 338.4 907.2 337.866 845.2C337.2 762.666 337.333 731.2 338.533 727.866C339.866 723.733 340.666 723.2 348.266 721.2C352.933 720 357.2 719.2 357.866 719.333C358.533 719.333 360.666 721.866 362.8 724.666ZM298 724C295.866 727.466 167.733 910.133 166.666 911.2C165.066 912.8 161.6 910.4 148.666 898.8C130.133 882.266 101.2 847.6 103.733 845.066C104.666 844.133 297.333 723.066 298.4 722.8C298.666 722.666 298.4 723.333 298 724ZM1206 725.333C1204.53 726 1192.53 730.266 1179.33 734.8C1166.13 739.2 1143.2 747.066 1128.27 752.266C1113.33 757.333 1100.93 761.333 1100.8 761.066C1100.27 760.4 1094.8 740.8 1095.07 740.533C1095.6 740.133 1203.2 724.4 1206 724.266L1208.67 724.133L1206 725.333ZM850 732.133C848.8 734 844 733.6 844 731.6C844 730.533 844.4 729.333 844.8 728.933C846.133 727.733 850.933 730.533 850 732.133ZM1322.4 733.6C1323.47 734.933 1318.4 742.933 1303.6 764.133L1283.47 793.066L1260 799.333C1224.53 808.933 1176.67 821.2 1176.4 820.8C1175.6 820.133 1316.8 732.266 1318.8 732.133C1320 732 1321.6 732.8 1322.4 733.6ZM1342.13 738.8L1348.8 740.4L1346.4 745.2C1343.07 751.6 1343.47 758.266 1347.33 765.066C1349.2 768.266 1350.4 771.333 1350 772C1349.2 773.2 1344.53 774.8 1313.6 784C1300.8 787.733 1290.27 790.666 1289.87 790.4C1289.6 790.133 1297.87 777.733 1308.4 762.933C1329.6 732.666 1326.4 735.066 1342.13 738.8ZM439.2 825.6C474.933 873.066 504.4 912.8 504.8 914C507.066 919.733 431.066 960 426.8 955.2C426.266 954.533 413.866 906.533 399.466 848.666C385.066 790.666 372.933 741.866 372.533 740C371.866 737.866 372.133 737.066 372.933 738C373.733 738.666 403.466 778.133 439.2 825.6ZM1469.87 821.733C1503.33 866.266 1531.07 903.6 1531.47 904.533C1532.27 906.666 1516 917.466 1497.6 926.8C1481.87 934.8 1458.27 944.266 1457.2 942.933C1456.67 942.4 1445.07 896.666 1431.33 841.333C1417.6 786 1406 739.733 1405.6 738.666C1405.07 736.933 1405.2 736.933 1406.93 738.666C1408 739.733 1436.4 777.2 1469.87 821.733ZM849.2 740.8C850.266 741.733 847.6 744 845.2 744C843.466 744 842.666 743.066 842.666 741.2C842.666 739.066 843.2 738.666 845.733 739.466C847.333 739.866 848.933 740.533 849.2 740.8ZM335.866 892.533C336.533 935.066 336.933 970.133 336.666 970.533C335.866 972 302.666 969.466 287.733 966.8C271.2 963.733 249.6 958.133 247.733 956.266C246.8 955.333 273.333 888.533 327.066 756L332.666 742.133L333.6 778.666C334.133 798.8 335.066 850.133 335.866 892.533ZM892.933 759.466C899.866 763.466 903.6 768.133 905.466 775.066C907.333 781.866 906.4 788 901.2 803.6L897.2 815.866L893.866 813.866C888.4 810.266 877.466 795.333 872.8 785.066C867.6 773.866 865.333 764.266 865.333 754V746.8L876.4 751.466C882.4 754 889.866 757.6 892.933 759.466ZM847.6 752.533C846.666 755.333 842.666 755.066 842.666 752.266C842.666 750.266 843.333 749.733 845.333 750.266C846.933 750.666 847.866 751.733 847.6 752.533ZM1032 755.066C1032 763.6 1027.33 780.266 1022.53 789.466L1018.27 797.466L1013.73 790.4C1008.53 782.133 1004 770.666 1004 765.866C1004 762.933 1007.2 753.466 1008.27 753.2C1008.53 753.2 1025.73 750.4 1031.07 749.466C1031.6 749.466 1032 752 1032 755.066ZM849.333 762.666C849.333 763.733 846.133 765.333 843.866 765.333C843.2 765.333 842.666 764.266 842.666 762.8C842.666 760.933 843.466 760.533 846 761.066C847.866 761.333 849.333 762.133 849.333 762.666ZM848.533 775.2C846.266 776.933 845.866 776.933 845.2 774.933C844.666 773.466 845.2 772.4 846.533 771.866C850 770.4 851.6 773.066 848.533 775.2ZM1048 777.466C1048 778.133 1047.47 778.666 1046.67 778.666C1046 778.666 1045.33 777.733 1045.33 776.533C1045.33 775.466 1046 774.933 1046.67 775.333C1047.47 775.733 1048 776.666 1048 777.466ZM1368.13 826C1368.67 853.866 1369.47 894.933 1369.87 917.2L1370.67 957.733L1352.93 956.933C1333.87 955.866 1313.87 952.8 1296.27 948C1286.27 945.333 1285.2 944.666 1285.87 942.266C1286.27 940.8 1301.07 903.333 1318.93 859.066L1351.33 778.8L1356.67 776.8C1359.6 775.733 1363.2 774.933 1364.67 775.066C1367.2 775.333 1367.33 776.666 1368.13 826ZM1314.53 862.666C1296.93 906.933 1282.27 943.466 1282.13 943.6C1281.33 944.533 1257.2 934.666 1244.13 928C1236.53 924.266 1224.93 917.866 1218.4 913.733L1206.53 906.4L1211.07 900.266C1213.6 896.8 1230.53 872.933 1248.67 847.333C1266.8 821.6 1281.87 800.4 1282.13 800.266C1282.93 799.2 1346 780.666 1346.27 781.333C1346.53 781.733 1332.27 818.266 1314.53 862.666ZM853.333 782.4C853.333 783.733 850.4 786.666 849.066 786.666C848.533 786.666 848 785.466 848 784C848 782.266 848.933 781.333 850.666 781.333C852.133 781.333 853.333 781.866 853.333 782.4ZM1055.33 798.266C1058.13 805.466 1064.13 818.666 1068.67 827.733C1073.6 837.6 1076.4 844.4 1075.47 844.666C1069.33 846.8 997.866 860.4 994 860.133C992.533 860.133 987.733 845.333 989.066 845.333C989.6 845.333 991.2 846.933 992.666 848.933C996.8 854 999.066 852 996.533 845.066C995.466 842 994.933 839.333 995.2 838.933C995.6 838.666 998.133 840.266 1000.93 842.533C1006.93 847.466 1009.07 846.133 1005.87 839.6C1002.8 833.2 1004.13 832.133 1009.87 836.533C1014.13 839.733 1017.33 840.933 1017.33 839.333C1017.33 838.933 1016.13 836.266 1014.67 833.466C1013.33 830.666 1012.4 828 1012.93 827.6C1013.33 827.2 1016 828.266 1018.93 830.133C1021.87 832 1024.67 833.2 1025.07 832.666C1025.6 832.266 1024.53 829.466 1022.93 826.4C1021.2 823.466 1020.13 820.8 1020.4 820.4C1020.8 820.133 1023.47 821.066 1026.4 822.533C1033.33 826 1034.67 824.266 1029.87 818C1027.87 815.333 1026.53 812.933 1026.93 812.666C1027.33 812.266 1030.13 812.933 1033.33 814C1040.27 816.4 1040 816.4 1040 814.266C1040 813.2 1038.53 811.066 1036.67 809.333C1032 804.933 1032.53 803.6 1038.4 804.666C1041.07 805.2 1043.87 805.6 1044.53 805.733C1047.6 806.4 1046.13 802.933 1042 800.133C1036.13 796.133 1037.2 794.266 1044.67 795.333C1052.13 796.533 1053.33 794.4 1047.33 790.666C1041.73 787.2 1041.33 785.333 1046.4 785.333C1050 785.333 1050.53 786.133 1055.33 798.266ZM857.333 792.533C857.333 793.466 856.4 795.066 855.333 796C853.733 797.333 853.2 797.2 852.533 795.333C852 794 852.4 792.533 853.466 791.866C856.133 790.266 857.333 790.4 857.333 792.533ZM860.8 803.866C858.8 805.733 858.4 805.733 857.333 804C856.4 802.533 856.8 801.733 858.4 801.2C861.866 799.866 863.2 801.333 860.8 803.866ZM1269.73 812.4C1265.47 818.4 1249.47 841.466 1234 863.6C1218.67 885.733 1205.47 903.866 1204.93 904C1202.4 904.133 1186.13 890.4 1170.53 874.8C1152.93 857.2 1141.87 843.733 1143.2 841.466C1143.73 840.8 1147.2 838.4 1151.07 836.133C1156 833.333 1169.87 829.2 1200 821.466C1223.07 815.466 1249.2 808.666 1258 806.133C1266.8 803.6 1274.8 801.6 1275.73 801.466C1276.67 801.333 1274 806.266 1269.73 812.4ZM868 810.266C868 810.933 867.333 812.266 866.666 813.333C865.733 814.8 865.066 814.933 863.866 813.733C863.066 812.933 862.8 811.6 863.2 810.8C864.266 809.2 868 808.8 868 810.266ZM947.733 820.933C949.333 827.466 950.666 833.2 950.666 833.733C950.666 835.066 936.666 833.866 928.933 831.866L923.866 830.533L933.466 820C938.8 814.133 943.466 809.333 943.866 809.333C944.4 809.333 946 814.533 947.733 820.933ZM987.733 815.333C990.8 817.466 993.333 819.733 993.333 820.133C993.333 821.2 987.6 825.066 985.333 825.6C984.4 825.866 982.666 822.533 981.333 817.6C978.666 808.533 978.533 808.666 987.733 815.333ZM874.666 818.266C874.666 818.933 874 820.266 873.333 821.333C872.4 822.8 871.733 822.933 870.533 821.733C869.733 820.933 869.466 819.6 869.866 818.8C870.933 817.2 874.666 816.8 874.666 818.266ZM881.2 828.133C880.133 830.266 879.466 830.533 877.866 829.2C876.266 827.866 876.266 827.466 878.266 826C881.466 823.6 883.066 824.8 881.2 828.133ZM889.733 834.666C888.933 837.6 887.333 838.133 886 836C884.933 834.266 887.866 830.4 889.333 831.333C890 831.733 890.133 833.2 889.733 834.666ZM1144.8 837.2C1140.93 839.733 1138.67 839.733 1138.67 837.333C1138.67 836.266 1141.87 835.333 1146.67 834.8C1147.73 834.8 1146.93 835.866 1144.8 837.2ZM898.666 838.933C898.666 842.133 896.666 843.866 894.666 842.666C893.2 841.733 893.2 841.2 894.533 839.466C896.666 836.933 898.666 836.666 898.666 838.933ZM908 845.333C908 847.866 907.333 849.333 906.133 849.333C903.2 849.333 902.4 847.066 904 844C906.133 840.133 908 840.666 908 845.333ZM917.333 850C917.333 854.8 916.666 855.466 913.333 853.333C911.733 852.4 911.733 851.733 913.333 848.8C915.866 844 917.333 844.533 917.333 850ZM928 854.133C928 858.4 927.733 858.8 925.066 857.866C920.8 856.666 920.933 856.8 923.333 852.133C925.866 846.933 928 847.866 928 854.133ZM938.133 854.266C938.533 856.4 939.066 858.8 939.466 859.6C940 861.466 936.266 861.866 933.6 860.266C932.4 859.466 932.266 858.133 933.466 854.933C935.2 849.733 937.066 849.466 938.133 854.266ZM942.666 852C942.666 852.666 942.4 853.333 942.133 853.333C941.733 853.333 941.066 852.666 940.666 852C940.266 851.2 940.533 850.666 941.2 850.666C942 850.666 942.666 851.2 942.666 852ZM949.333 856.666C951.466 864.133 954.666 864.8 954.666 857.733C954.666 852 956.533 853.2 958 859.866L958.933 864.4L951.333 863.6C947.2 863.2 943.466 862.666 943.2 862.4C942.4 861.6 945.6 850.666 946.666 850.666C947.2 850.666 948.4 853.333 949.333 856.666Z" fill="white"/>
</svg>
